<svg xmlns="http://www.w3.org/2000/svg" viewBox="0 0 730 320">
    <style>
        /* <![CDATA[ */
        * {
            font-size: 10px;
        }
        rect, line, ellipse, polygon {
            stroke: #D4D4D4;
            stroke-width: 2;
        }
        rect, ellipse, polygon {
            fill: #1E1E1E;
        }
        text {
            fill: #9CDCFE;
            stroke: transparent;
            font-family: Roboto Mono,Monaco,courier,monospace;
            font-size: 1.5rem;
            font-weight: normal;
        }
        text.value {
            fill: #D4D4D4;
        }
        /* ]]> */
    </style>
    <defs>
        <g id="election">
            <rect x="0" y="0" width="150" height="50" />
            <text x="75" y="25" text-anchor="middle" alignment-baseline="middle">
                Election
            </text>
        </g>
        <g id="candidate">
            <rect x="0" y="0" width="150" height="50" />
            <text x="75" y="25" text-anchor="middle" alignment-baseline="middle">
                Candidate
            </text>
        </g>
        <g id="electionDate">
            <ellipse cx="75" cy="25" rx="75" ry="30"/>
            <text x="75" y="25" text-anchor="middle" alignment-baseline="middle">
                ElectionDate
            </text>
        </g>
        <g id="electoralAreaLabel">
            <ellipse cx="75" cy="25" rx="100" ry="30"/>
            <text x="75" y="25" text-anchor="middle" alignment-baseline="middle">
                ElectoralAreaLabel
            </text>
        </g>
        <g id="ballotsRejectedUnmarked">
            <ellipse cx="75" cy="25" rx="120" ry="30"/>
            <text x="75" y="25" text-anchor="middle" alignment-baseline="middle">
                BallotsRejectedUnmarked
            </text>
        </g>

        
        <g id="candidateSurname">
            <ellipse cx="75" cy="25" rx="100" ry="30"/>
            <text x="75" y="25" text-anchor="middle" alignment-baseline="middle">
                CandidateSurname
            </text>
        </g>

        <g id="votesWon">
            <ellipse cx="75" cy="25" rx="75" ry="30"/>
            <text x="75" y="25" text-anchor="middle" alignment-baseline="middle">
                VotesWon
            </text>
        </g>
        
        <g id="electionGroup">
            <line x1="175" y1="25" x2="75" y2="125" />
            <line x1="175" y1="25" x2="175" y2="200" />
            <line x1="175" y1="25" x2="320" y2="125" />

            <use x="100" y="0" href="#election" />
            <use x="0" y="90" href="#electionDate" />
            <use x="100" y="162" href="#ballotsRejectedUnmarked" />
            <use x="240" y="90" href="#electoralAreaLabel" />
        </g>
        
        <g id="candidateGroup">
            <line x1="175" y1="125" x2="75" y2="25" />
            <line x1="175" y1="125" x2="250" y2="25" />

            <use x="100" y="100" href="#candidate" />
            <use x="0" y="6" href="#candidateSurname" />
            <use x="200" y="6" href="#votesWon" />
        </g>

        <g id="connector">
            <line x1="0" y1="0" x2="227" y2="0" />
            <!--<line x1="0" y1="-10" x2="20" y2="0" />
            <line x1="0" y1="10" x2="20" y2="0" />-->
            
            <line x1="207" y1="0" x2="227" y2="-10" />
            <line x1="207" y1="0" x2="227" y2="10" />

            <ellipse cx="202" cy="0" rx="5" ry="5"/>

            <polygon points="63,0,103,-30,143,0,103,30"/>
            <text x="103" y="0" text-anchor="middle" alignment-baseline="middle">
                Has
            </text>
        </g>
    </defs>

    <use x="1" y="101" href="#electionGroup" />
    <use x="378" y="1" href="#candidateGroup" />
    <use x="251" y="126" href="#connector" />
</svg>